# MagicaVoxel @ Ephtracy

# group
o 

# material
mtllib Shotgun.mtl
usemtl palette

# normals
vn -1 0 0
vn 1 0 0
vn 0 0 1
vn 0 0 -1
vn 0 -1 0
vn 0 1 0

# texcoords
vt 0.00195313 0.5
vt 0.00585938 0.5
vt 0.0175781 0.5
vt 0.0214844 0.5
vt 0.0527344 0.5
vt 0.0566406 0.5

# verts
v 1.6 3.6 0
v 1.6 3.6 -0.2
v 1.6 3.7 0
v 1.6 3.7 -0.2
v 1.6 3.7 -0.5
v 1.6 3.8 0
v 1.6 3.8 -0.5
v 1.6 3.8 -1.1
v 1.6 3.9 0
v 1.6 3.9 -1.1
v 1.6 3.9 -1.2
v 1.6 3.9 -2
v 1.6 3.9 -2.5
v 1.6 4 0
v 1.6 4 -0.5
v 1.6 4 -1
v 1.6 4 -1.2
v 1.6 4 -1.3
v 1.6 4 -2
v 1.6 4 -2.1
v 1.6 4 -2.4
v 1.6 4 -2.5
v 1.6 4.1 0
v 1.6 4.1 -0.5
v 1.6 4.1 -1
v 1.6 4.1 -1.3
v 1.6 4.1 -1.4
v 1.6 4.1 -2.1
v 1.6 4.1 -2.4
v 1.6 4.1 -3.7
v 1.6 4.2 -1.4
v 1.6 4.2 -3.7
v 1.7 3.5 0
v 1.7 3.5 -0.2
v 1.7 3.6 0
v 1.7 3.6 -0.2
v 1.7 3.6 -0.5
v 1.7 3.7 -0.2
v 1.7 3.7 -0.5
v 1.7 3.7 -1
v 1.7 3.8 -0.5
v 1.7 3.8 -1
v 1.7 3.8 -1.1
v 1.7 3.8 -1.2
v 1.7 3.8 -2
v 1.7 3.8 -2.5
v 1.7 3.9 -1.1
v 1.7 3.9 -1.2
v 1.7 3.9 -1.3
v 1.7 3.9 -1.6
v 1.7 3.9 -2
v 1.7 3.9 -2.5
v 1.7 3.9 -2.6
v 1.7 4 -0.5
v 1.7 4 -1
v 1.7 4 -1.2
v 1.7 4 -1.3
v 1.7 4 -1.4
v 1.7 4 -1.6
v 1.7 4 -2
v 1.7 4 -2.1
v 1.7 4 -2.4
v 1.7 4 -2.5
v 1.7 4 -2.6
v 1.7 4 -3.7
v 1.7 4.1 -0.5
v 1.7 4.1 -1
v 1.7 4.1 -1.1
v 1.7 4.1 -1.3
v 1.7 4.1 -1.4
v 1.7 4.1 -2.1
v 1.7 4.1 -2.4
v 1.7 4.1 -3.7
v 1.7 4.2 -1.1
v 1.7 4.2 -1.3
v 1.7 4.2 -1.4
v 1.7 4.2 -3.7
v 1.7 4.3 -1.4
v 1.7 4.3 -3.7
v 1.8 4.1 -1.4
v 1.8 4.1 -2.1
v 1.8 4.1 -2.4
v 1.8 4.1 -3.7
v 1.8 4.2 -1.4
v 1.8 4.2 -3.7
v 1.7 4.1 -1.4
v 1.7 4.1 -2.1
v 1.7 4.1 -2.4
v 1.7 4.1 -3.7
v 1.7 4.2 -1.4
v 1.7 4.2 -3.7
v 1.8 3.5 0
v 1.8 3.5 -0.2
v 1.8 3.6 0
v 1.8 3.6 -0.2
v 1.8 3.6 -0.5
v 1.8 3.7 -0.2
v 1.8 3.7 -0.5
v 1.8 3.7 -1
v 1.8 3.8 -0.5
v 1.8 3.8 -1
v 1.8 3.8 -1.1
v 1.8 3.8 -1.2
v 1.8 3.8 -2
v 1.8 3.8 -2.5
v 1.8 3.9 -1.1
v 1.8 3.9 -1.2
v 1.8 3.9 -1.3
v 1.8 3.9 -1.6
v 1.8 3.9 -2
v 1.8 3.9 -2.5
v 1.8 3.9 -2.6
v 1.8 4 -0.5
v 1.8 4 -1
v 1.8 4 -1.2
v 1.8 4 -1.3
v 1.8 4 -1.4
v 1.8 4 -1.6
v 1.8 4 -2
v 1.8 4 -2.1
v 1.8 4 -2.4
v 1.8 4 -2.5
v 1.8 4 -2.6
v 1.8 4 -3.7
v 1.8 4.1 -0.5
v 1.8 4.1 -1
v 1.8 4.1 -1.1
v 1.8 4.1 -1.3
v 1.8 4.1 -1.4
v 1.8 4.1 -2.1
v 1.8 4.1 -2.4
v 1.8 4.1 -3.7
v 1.8 4.2 -1.1
v 1.8 4.2 -1.3
v 1.8 4.2 -1.4
v 1.8 4.2 -3.7
v 1.8 4.3 -1.4
v 1.8 4.3 -3.7
v 1.9 3.6 0
v 1.9 3.6 -0.2
v 1.9 3.7 0
v 1.9 3.7 -0.2
v 1.9 3.7 -0.5
v 1.9 3.8 0
v 1.9 3.8 -0.5
v 1.9 3.8 -1.1
v 1.9 3.9 0
v 1.9 3.9 -1.1
v 1.9 3.9 -1.2
v 1.9 3.9 -2
v 1.9 3.9 -2.5
v 1.9 4 0
v 1.9 4 -0.5
v 1.9 4 -1
v 1.9 4 -1.2
v 1.9 4 -1.3
v 1.9 4 -2
v 1.9 4 -2.1
v 1.9 4 -2.4
v 1.9 4 -2.5
v 1.9 4.1 0
v 1.9 4.1 -0.5
v 1.9 4.1 -1
v 1.9 4.1 -1.3
v 1.9 4.1 -1.4
v 1.9 4.1 -2.1
v 1.9 4.1 -2.4
v 1.9 4.1 -3.7
v 1.9 4.2 -1.4
v 1.9 4.2 -3.7
v 1.6 3.6 0
v 1.6 3.7 0
v 1.6 3.8 0
v 1.6 3.9 0
v 1.6 4 0
v 1.6 4.1 0
v 1.7 3.5 0
v 1.7 3.6 0
v 1.7 3.7 0
v 1.7 3.8 0
v 1.7 3.9 0
v 1.7 4 0
v 1.7 4.1 0
v 1.8 3.5 0
v 1.8 3.6 0
v 1.8 3.7 0
v 1.8 3.8 0
v 1.8 3.9 0
v 1.8 4 0
v 1.8 4.1 0
v 1.9 3.6 0
v 1.9 3.7 0
v 1.9 3.8 0
v 1.9 3.9 0
v 1.9 4 0
v 1.9 4.1 0
v 1.6 4 -1
v 1.6 4.1 -1
v 1.7 4 -1
v 1.7 4.1 -1
v 1.8 4 -1
v 1.8 4.1 -1
v 1.9 4 -1
v 1.9 4.1 -1
v 1.7 4.1 -1.1
v 1.7 4.2 -1.1
v 1.8 4.1 -1.1
v 1.8 4.2 -1.1
v 1.6 4.1 -1.4
v 1.6 4.2 -1.4
v 1.7 4.1 -1.4
v 1.7 4.2 -1.4
v 1.7 4.3 -1.4
v 1.8 4.1 -1.4
v 1.8 4.2 -1.4
v 1.8 4.3 -1.4
v 1.9 4.1 -1.4
v 1.9 4.2 -1.4
v 1.7 3.9 -1.6
v 1.7 4 -1.6
v 1.8 3.9 -1.6
v 1.8 4 -1.6
v 1.6 3.9 -2
v 1.6 4 -2
v 1.7 3.8 -2
v 1.7 3.9 -2
v 1.7 4 -2
v 1.8 3.8 -2
v 1.8 3.9 -2
v 1.8 4 -2
v 1.9 3.9 -2
v 1.9 4 -2
v 1.6 4 -2.1
v 1.6 4.1 -2.1
v 1.7 4 -2.1
v 1.7 4.1 -2.1
v 1.8 4 -2.1
v 1.8 4.1 -2.1
v 1.9 4 -2.1
v 1.9 4.1 -2.1
v 1.6 3.6 -0.2
v 1.6 3.7 -0.2
v 1.7 3.5 -0.2
v 1.7 3.6 -0.2
v 1.7 3.7 -0.2
v 1.8 3.5 -0.2
v 1.8 3.6 -0.2
v 1.8 3.7 -0.2
v 1.9 3.6 -0.2
v 1.9 3.7 -0.2
v 1.6 3.7 -0.5
v 1.6 3.8 -0.5
v 1.6 4 -0.5
v 1.6 4.1 -0.5
v 1.7 3.6 -0.5
v 1.7 3.7 -0.5
v 1.7 3.8 -0.5
v 1.7 4 -0.5
v 1.7 4.1 -0.5
v 1.8 3.6 -0.5
v 1.8 3.7 -0.5
v 1.8 3.8 -0.5
v 1.8 4 -0.5
v 1.8 4.1 -0.5
v 1.9 3.7 -0.5
v 1.9 3.8 -0.5
v 1.9 4 -0.5
v 1.9 4.1 -0.5
v 1.7 3.7 -1
v 1.7 3.8 -1
v 1.8 3.7 -1
v 1.8 3.8 -1
v 1.6 3.8 -1.1
v 1.6 3.9 -1.1
v 1.7 3.8 -1.1
v 1.7 3.9 -1.1
v 1.8 3.8 -1.1
v 1.8 3.9 -1.1
v 1.9 3.8 -1.1
v 1.9 3.9 -1.1
v 1.6 3.9 -1.2
v 1.6 4 -1.2
v 1.7 3.8 -1.2
v 1.7 3.9 -1.2
v 1.7 4 -1.2
v 1.8 3.8 -1.2
v 1.8 3.9 -1.2
v 1.8 4 -1.2
v 1.9 3.9 -1.2
v 1.9 4 -1.2
v 1.6 4 -1.3
v 1.6 4.1 -1.3
v 1.7 3.9 -1.3
v 1.7 4 -1.3
v 1.7 4.1 -1.3
v 1.8 3.9 -1.3
v 1.8 4 -1.3
v 1.8 4.1 -1.3
v 1.9 4 -1.3
v 1.9 4.1 -1.3
v 1.7 4.1 -1.4
v 1.7 4.2 -1.4
v 1.8 4.1 -1.4
v 1.8 4.2 -1.4
v 1.6 4 -2.4
v 1.6 4.1 -2.4
v 1.7 4 -2.4
v 1.7 4.1 -2.4
v 1.8 4 -2.4
v 1.8 4.1 -2.4
v 1.9 4 -2.4
v 1.9 4.1 -2.4
v 1.6 3.9 -2.5
v 1.6 4 -2.5
v 1.7 3.8 -2.5
v 1.7 3.9 -2.5
v 1.7 4 -2.5
v 1.8 3.8 -2.5
v 1.8 3.9 -2.5
v 1.8 4 -2.5
v 1.9 3.9 -2.5
v 1.9 4 -2.5
v 1.7 3.9 -2.6
v 1.7 4 -2.6
v 1.8 3.9 -2.6
v 1.8 4 -2.6
v 1.6 4.1 -3.7
v 1.6 4.2 -3.7
v 1.7 4 -3.7
v 1.7 4.1 -3.7
v 1.7 4.2 -3.7
v 1.7 4.3 -3.7
v 1.8 4 -3.7
v 1.8 4.1 -3.7
v 1.8 4.2 -3.7
v 1.8 4.3 -3.7
v 1.9 4.1 -3.7
v 1.9 4.2 -3.7
v 1.7 3.5 0
v 1.8 3.5 0
v 1.7 3.5 -0.2
v 1.8 3.5 -0.2
v 1.6 3.6 0
v 1.7 3.6 0
v 1.8 3.6 0
v 1.9 3.6 0
v 1.6 3.6 -0.2
v 1.7 3.6 -0.2
v 1.8 3.6 -0.2
v 1.9 3.6 -0.2
v 1.7 3.6 -0.5
v 1.8 3.6 -0.5
v 1.6 3.7 -0.2
v 1.7 3.7 -0.2
v 1.8 3.7 -0.2
v 1.9 3.7 -0.2
v 1.6 3.7 -0.5
v 1.7 3.7 -0.5
v 1.8 3.7 -0.5
v 1.9 3.7 -0.5
v 1.7 3.7 -1
v 1.8 3.7 -1
v 1.6 3.8 -0.5
v 1.7 3.8 -0.5
v 1.8 3.8 -0.5
v 1.9 3.8 -0.5
v 1.7 3.8 -1
v 1.8 3.8 -1
v 1.6 3.8 -1.1
v 1.7 3.8 -1.1
v 1.8 3.8 -1.1
v 1.9 3.8 -1.1
v 1.7 3.8 -1.2
v 1.8 3.8 -1.2
v 1.7 3.8 -2
v 1.8 3.8 -2
v 1.7 3.8 -2.5
v 1.8 3.8 -2.5
v 1.6 3.9 -1.1
v 1.7 3.9 -1.1
v 1.8 3.9 -1.1
v 1.9 3.9 -1.1
v 1.6 3.9 -1.2
v 1.7 3.9 -1.2
v 1.8 3.9 -1.2
v 1.9 3.9 -1.2
v 1.7 3.9 -1.3
v 1.8 3.9 -1.3
v 1.7 3.9 -1.6
v 1.8 3.9 -1.6
v 1.6 3.9 -2
v 1.7 3.9 -2
v 1.8 3.9 -2
v 1.9 3.9 -2
v 1.6 3.9 -2.5
v 1.7 3.9 -2.5
v 1.8 3.9 -2.5
v 1.9 3.9 -2.5
v 1.7 3.9 -2.6
v 1.8 3.9 -2.6
v 1.6 4 -1.2
v 1.7 4 -1.2
v 1.8 4 -1.2
v 1.9 4 -1.2
v 1.6 4 -1.3
v 1.7 4 -1.3
v 1.8 4 -1.3
v 1.9 4 -1.3
v 1.7 4 -1.4
v 1.8 4 -1.4
v 1.7 4 -1.6
v 1.8 4 -1.6
v 1.7 4 -2.6
v 1.8 4 -2.6
v 1.7 4 -3.7
v 1.8 4 -3.7
v 1.6 4.1 -1.4
v 1.7 4.1 -1.4
v 1.8 4.1 -1.4
v 1.9 4.1 -1.4
v 1.6 4.1 -2.1
v 1.7 4.1 -2.1
v 1.8 4.1 -2.1
v 1.9 4.1 -2.1
v 1.6 4.1 -2.4
v 1.7 4.1 -2.4
v 1.8 4.1 -2.4
v 1.9 4.1 -2.4
v 1.6 4.1 -3.7
v 1.7 4.1 -3.7
v 1.8 4.1 -3.7
v 1.9 4.1 -3.7
v 1.7 4.2 -1.4
v 1.8 4.2 -1.4
v 1.7 4.2 -3.7
v 1.8 4.2 -3.7
v 1.6 4 -0.5
v 1.7 4 -0.5
v 1.8 4 -0.5
v 1.9 4 -0.5
v 1.6 4 -1
v 1.7 4 -1
v 1.8 4 -1
v 1.9 4 -1
v 1.6 4 -2
v 1.7 4 -2
v 1.8 4 -2
v 1.9 4 -2
v 1.6 4 -2.1
v 1.7 4 -2.1
v 1.8 4 -2.1
v 1.9 4 -2.1
v 1.6 4 -2.4
v 1.7 4 -2.4
v 1.8 4 -2.4
v 1.9 4 -2.4
v 1.6 4 -2.5
v 1.7 4 -2.5
v 1.8 4 -2.5
v 1.9 4 -2.5
v 1.6 4.1 0
v 1.7 4.1 0
v 1.8 4.1 0
v 1.9 4.1 0
v 1.6 4.1 -0.5
v 1.7 4.1 -0.5
v 1.8 4.1 -0.5
v 1.9 4.1 -0.5
v 1.6 4.1 -1
v 1.7 4.1 -1
v 1.8 4.1 -1
v 1.9 4.1 -1
v 1.7 4.1 -1.1
v 1.8 4.1 -1.1
v 1.6 4.1 -1.3
v 1.7 4.1 -1.3
v 1.8 4.1 -1.3
v 1.9 4.1 -1.3
v 1.7 4.1 -1.4
v 1.8 4.1 -1.4
v 1.7 4.1 -2.1
v 1.8 4.1 -2.1
v 1.7 4.1 -2.4
v 1.8 4.1 -2.4
v 1.7 4.1 -3.7
v 1.8 4.1 -3.7
v 1.7 4.2 -1.1
v 1.8 4.2 -1.1
v 1.7 4.2 -1.3
v 1.8 4.2 -1.3
v 1.6 4.2 -1.4
v 1.7 4.2 -1.4
v 1.8 4.2 -1.4
v 1.9 4.2 -1.4
v 1.6 4.2 -3.7
v 1.7 4.2 -3.7
v 1.8 4.2 -3.7
v 1.9 4.2 -3.7
v 1.7 4.3 -1.4
v 1.8 4.3 -1.4
v 1.7 4.3 -3.7
v 1.8 4.3 -3.7

# faces
f 3/4/1 2/4/1 1/4/1
f 4/4/1 2/4/1 3/4/1
f 6/3/1 4/3/1 3/3/1
f 6/3/1 5/3/1 4/3/1
f 7/3/1 5/3/1 6/3/1
f 9/4/1 7/4/1 6/4/1
f 9/4/1 8/4/1 7/4/1
f 10/4/1 8/4/1 9/4/1
f 14/3/1 10/3/1 9/3/1
f 14/3/1 11/3/1 10/3/1
f 15/3/1 11/3/1 14/3/1
f 16/3/1 11/3/1 15/3/1
f 17/3/1 11/3/1 16/3/1
f 19/4/1 13/4/1 12/4/1
f 20/4/1 13/4/1 19/4/1
f 21/4/1 13/4/1 20/4/1
f 22/4/1 13/4/1 21/4/1
f 23/4/1 15/4/1 14/4/1
f 24/4/1 15/4/1 23/4/1
f 25/4/1 18/4/1 17/4/1
f 25/4/1 17/4/1 16/4/1
f 26/4/1 18/4/1 25/4/1
f 28/4/1 21/4/1 20/4/1
f 29/4/1 21/4/1 28/4/1
f 31/5/1 30/5/1 29/5/1
f 31/5/1 28/5/1 27/5/1
f 31/5/1 29/5/1 28/5/1
f 32/5/1 30/5/1 31/5/1
f 35/4/1 34/4/1 33/4/1
f 36/4/1 34/4/1 35/4/1
f 38/4/1 37/4/1 36/4/1
f 39/4/1 37/4/1 38/4/1
f 41/4/1 40/4/1 39/4/1
f 42/4/1 40/4/1 41/4/1
f 47/4/1 44/4/1 43/4/1
f 48/4/1 44/4/1 47/4/1
f 51/4/1 46/4/1 45/4/1
f 52/4/1 46/4/1 51/4/1
f 56/2/1 49/2/1 48/2/1
f 57/2/1 49/2/1 56/2/1
f 59/6/1 51/6/1 50/6/1
f 60/6/1 51/6/1 59/6/1
f 63/6/1 53/6/1 52/6/1
f 64/6/1 53/6/1 63/6/1
f 66/3/1 55/3/1 54/3/1
f 67/3/1 55/3/1 66/3/1
f 69/2/1 58/2/1 57/2/1
f 70/1/1 61/1/1 60/1/1
f 70/1/1 59/1/1 58/1/1
f 70/2/1 58/2/1 69/2/1
f 70/1/1 60/1/1 59/1/1
f 71/1/1 61/1/1 70/1/1
f 72/1/1 65/1/1 64/1/1
f 72/1/1 64/1/1 63/1/1
f 72/1/1 63/1/1 62/1/1
f 73/1/1 65/1/1 72/1/1
f 74/4/1 69/4/1 68/4/1
f 75/5/1 70/5/1 69/5/1
f 75/4/1 69/4/1 74/4/1
f 76/5/1 70/5/1 75/5/1
f 78/2/1 77/2/1 76/2/1
f 79/2/1 77/2/1 78/2/1
f 84/5/1 81/5/1 80/5/1
f 84/5/1 83/5/1 82/5/1
f 84/5/1 82/5/1 81/5/1
f 85/5/1 83/5/1 84/5/1
f 86/5/2 87/5/2 90/5/2
f 88/5/2 89/5/2 90/5/2
f 87/5/2 88/5/2 90/5/2
f 90/5/2 89/5/2 91/5/2
f 92/4/2 93/4/2 94/4/2
f 94/4/2 93/4/2 95/4/2
f 95/4/2 96/4/2 97/4/2
f 97/4/2 96/4/2 98/4/2
f 98/4/2 99/4/2 100/4/2
f 100/4/2 99/4/2 101/4/2
f 102/4/2 103/4/2 106/4/2
f 106/4/2 103/4/2 107/4/2
f 104/4/2 105/4/2 110/4/2
f 110/4/2 105/4/2 111/4/2
f 107/2/2 108/2/2 115/2/2
f 115/2/2 108/2/2 116/2/2
f 109/6/2 110/6/2 118/6/2
f 118/6/2 110/6/2 119/6/2
f 111/6/2 112/6/2 122/6/2
f 122/6/2 112/6/2 123/6/2
f 113/3/2 114/3/2 125/3/2
f 125/3/2 114/3/2 126/3/2
f 116/2/2 117/2/2 128/2/2
f 119/1/2 120/1/2 129/1/2
f 117/1/2 118/1/2 129/1/2
f 128/2/2 117/2/2 129/2/2
f 118/1/2 119/1/2 129/1/2
f 129/1/2 120/1/2 130/1/2
f 123/1/2 124/1/2 131/1/2
f 122/1/2 123/1/2 131/1/2
f 121/1/2 122/1/2 131/1/2
f 131/1/2 124/1/2 132/1/2
f 127/4/2 128/4/2 133/4/2
f 128/5/2 129/5/2 134/5/2
f 133/4/2 128/4/2 134/4/2
f 134/5/2 129/5/2 135/5/2
f 135/2/2 136/2/2 137/2/2
f 137/2/2 136/2/2 138/2/2
f 139/4/2 140/4/2 141/4/2
f 141/4/2 140/4/2 142/4/2
f 141/3/2 142/3/2 144/3/2
f 142/3/2 143/3/2 144/3/2
f 144/3/2 143/3/2 145/3/2
f 144/4/2 145/4/2 147/4/2
f 145/4/2 146/4/2 147/4/2
f 147/4/2 146/4/2 148/4/2
f 147/3/2 148/3/2 152/3/2
f 148/3/2 149/3/2 152/3/2
f 152/3/2 149/3/2 153/3/2
f 153/3/2 149/3/2 154/3/2
f 154/3/2 149/3/2 155/3/2
f 150/4/2 151/4/2 157/4/2
f 157/4/2 151/4/2 158/4/2
f 158/4/2 151/4/2 159/4/2
f 159/4/2 151/4/2 160/4/2
f 152/4/2 153/4/2 161/4/2
f 161/4/2 153/4/2 162/4/2
f 155/4/2 156/4/2 163/4/2
f 154/4/2 155/4/2 163/4/2
f 163/4/2 156/4/2 164/4/2
f 158/4/2 159/4/2 166/4/2
f 166/4/2 159/4/2 167/4/2
f 167/5/2 168/5/2 169/5/2
f 165/5/2 166/5/2 169/5/2
f 166/5/2 167/5/2 169/5/2
f 169/5/2 168/5/2 170/5/2
f 178/4/3 172/4/3 171/4/3
f 179/3/3 173/3/3 172/3/3
f 179/4/3 172/4/3 178/4/3
f 180/4/3 174/4/3 173/4/3
f 180/3/3 173/3/3 179/3/3
f 181/3/3 175/3/3 174/3/3
f 181/4/3 174/4/3 180/4/3
f 182/4/3 176/4/3 175/4/3
f 182/3/3 175/3/3 181/3/3
f 183/4/3 176/4/3 182/4/3
f 184/4/3 181/4/3 180/4/3
f 184/4/3 178/4/3 177/4/3
f 184/4/3 179/4/3 178/4/3
f 184/4/3 182/4/3 181/4/3
f 184/4/3 180/4/3 179/4/3
f 185/4/3 182/4/3 184/4/3
f 186/4/3 182/4/3 185/4/3
f 187/4/3 182/4/3 186/4/3
f 188/4/3 182/4/3 187/4/3
f 189/3/3 183/3/3 182/3/3
f 189/4/3 182/4/3 188/4/3
f 190/3/3 183/3/3 189/3/3
f 191/4/3 186/4/3 185/4/3
f 192/3/3 187/3/3 186/3/3
f 192/4/3 186/4/3 191/4/3
f 193/4/3 188/4/3 187/4/3
f 193/3/3 187/3/3 192/3/3
f 194/3/3 189/3/3 188/3/3
f 194/4/3 188/4/3 193/4/3
f 195/4/3 190/4/3 189/4/3
f 195/3/3 189/3/3 194/3/3
f 196/4/3 190/4/3 195/4/3
f 199/4/3 198/4/3 197/4/3
f 200/4/3 198/4/3 199/4/3
f 203/4/3 202/4/3 201/4/3
f 204/4/3 202/4/3 203/4/3
f 207/4/3 206/4/3 205/4/3
f 208/4/3 206/4/3 207/4/3
f 211/5/3 210/5/3 209/5/3
f 212/5/3 210/5/3 211/5/3
f 215/2/3 213/2/3 212/2/3
f 216/2/3 213/2/3 215/2/3
f 217/5/3 215/5/3 214/5/3
f 218/5/3 215/5/3 217/5/3
f 221/6/3 220/6/3 219/6/3
f 222/6/3 220/6/3 221/6/3
f 226/4/3 224/4/3 223/4/3
f 227/4/3 224/4/3 226/4/3
f 228/4/3 226/4/3 225/4/3
f 229/4/3 226/4/3 228/4/3
f 231/4/3 230/4/3 229/4/3
f 232/4/3 230/4/3 231/4/3
f 235/4/3 234/4/3 233/4/3
f 236/4/3 234/4/3 235/4/3
f 239/4/3 238/4/3 237/4/3
f 240/4/3 238/4/3 239/4/3
f 241/4/4 242/4/4 244/4/4
f 244/4/4 242/4/4 245/4/4
f 243/4/4 244/4/4 246/4/4
f 246/4/4 244/4/4 247/4/4
f 247/4/4 248/4/4 249/4/4
f 249/4/4 248/4/4 250/4/4
f 251/3/4 252/3/4 256/3/4
f 256/3/4 252/3/4 257/3/4
f 253/4/4 254/4/4 258/4/4
f 258/4/4 254/4/4 259/4/4
f 255/4/4 256/4/4 260/4/4
f 260/4/4 256/4/4 261/4/4
f 261/3/4 262/3/4 265/3/4
f 265/3/4 262/3/4 266/3/4
f 263/4/4 264/4/4 267/4/4
f 267/4/4 264/4/4 268/4/4
f 269/4/4 270/4/4 271/4/4
f 271/4/4 270/4/4 272/4/4
f 273/4/4 274/4/4 275/4/4
f 275/4/4 274/4/4 276/4/4
f 277/4/4 278/4/4 279/4/4
f 279/4/4 278/4/4 280/4/4
f 281/3/4 282/3/4 284/3/4
f 284/3/4 282/3/4 285/3/4
f 283/4/4 284/4/4 286/4/4
f 286/4/4 284/4/4 287/4/4
f 287/3/4 288/3/4 289/3/4
f 289/3/4 288/3/4 290/3/4
f 291/4/4 292/4/4 294/4/4
f 294/4/4 292/4/4 295/4/4
f 293/2/4 294/2/4 296/2/4
f 296/2/4 294/2/4 297/2/4
f 297/4/4 298/4/4 299/4/4
f 299/4/4 298/4/4 300/4/4
f 301/5/4 302/5/4 303/5/4
f 303/5/4 302/5/4 304/5/4
f 305/4/4 306/4/4 307/4/4
f 307/4/4 306/4/4 308/4/4
f 309/4/4 310/4/4 311/4/4
f 311/4/4 310/4/4 312/4/4
f 313/4/4 314/4/4 316/4/4
f 316/4/4 314/4/4 317/4/4
f 315/4/4 316/4/4 318/4/4
f 318/4/4 316/4/4 319/4/4
f 319/4/4 320/4/4 321/4/4
f 321/4/4 320/4/4 322/4/4
f 323/6/4 324/6/4 325/6/4
f 325/6/4 324/6/4 326/6/4
f 327/5/4 328/5/4 330/5/4
f 330/5/4 328/5/4 331/5/4
f 329/1/4 330/1/4 333/1/4
f 333/1/4 330/1/4 334/1/4
f 331/2/4 332/2/4 335/2/4
f 335/2/4 332/2/4 336/2/4
f 334/5/4 335/5/4 337/5/4
f 337/5/4 335/5/4 338/5/4
f 341/4/5 340/4/5 339/4/5
f 342/4/5 340/4/5 341/4/5
f 347/4/5 344/4/5 343/4/5
f 348/4/5 344/4/5 347/4/5
f 349/4/5 346/4/5 345/4/5
f 350/4/5 346/4/5 349/4/5
f 351/4/5 349/4/5 348/4/5
f 352/4/5 349/4/5 351/4/5
f 357/3/5 354/3/5 353/3/5
f 358/3/5 354/3/5 357/3/5
f 359/3/5 356/3/5 355/3/5
f 360/3/5 356/3/5 359/3/5
f 361/4/5 359/4/5 358/4/5
f 362/4/5 359/4/5 361/4/5
f 367/4/5 364/4/5 363/4/5
f 368/4/5 366/4/5 365/4/5
f 369/4/5 367/4/5 363/4/5
f 369/4/5 368/4/5 367/4/5
f 370/4/5 368/4/5 369/4/5
f 371/4/5 366/4/5 368/4/5
f 371/4/5 368/4/5 370/4/5
f 372/4/5 366/4/5 371/4/5
f 373/4/5 371/4/5 370/4/5
f 374/4/5 371/4/5 373/4/5
f 377/4/5 376/4/5 375/4/5
f 378/4/5 376/4/5 377/4/5
f 383/3/5 380/3/5 379/3/5
f 384/3/5 380/3/5 383/3/5
f 385/3/5 382/3/5 381/3/5
f 386/3/5 382/3/5 385/3/5
f 387/2/5 385/2/5 384/2/5
f 388/2/5 385/2/5 387/2/5
f 392/6/5 390/6/5 389/6/5
f 393/6/5 390/6/5 392/6/5
f 395/4/5 392/4/5 391/4/5
f 396/4/5 392/4/5 395/4/5
f 397/4/5 394/4/5 393/4/5
f 398/4/5 394/4/5 397/4/5
f 399/6/5 397/6/5 396/6/5
f 400/6/5 397/6/5 399/6/5
f 405/4/5 402/4/5 401/4/5
f 406/4/5 402/4/5 405/4/5
f 407/4/5 404/4/5 403/4/5
f 408/4/5 404/4/5 407/4/5
f 409/2/5 407/2/5 406/2/5
f 410/2/5 407/2/5 409/2/5
f 411/1/5 410/1/5 409/1/5
f 412/1/5 410/1/5 411/1/5
f 415/1/5 414/1/5 413/1/5
f 416/1/5 414/1/5 415/1/5
f 421/5/5 418/5/5 417/5/5
f 422/5/5 418/5/5 421/5/5
f 423/5/5 420/5/5 419/5/5
f 424/5/5 420/5/5 423/5/5
f 429/5/5 426/5/5 425/5/5
f 430/5/5 426/5/5 429/5/5
f 431/5/5 428/5/5 427/5/5
f 432/5/5 428/5/5 431/5/5
f 435/2/5 434/2/5 433/2/5
f 436/2/5 434/2/5 435/2/5
f 437/3/6 438/3/6 441/3/6
f 441/3/6 438/3/6 442/3/6
f 439/3/6 440/3/6 443/3/6
f 443/3/6 440/3/6 444/3/6
f 445/4/6 446/4/6 449/4/6
f 449/4/6 446/4/6 450/4/6
f 447/4/6 448/4/6 451/4/6
f 451/4/6 448/4/6 452/4/6
f 453/4/6 454/4/6 457/4/6
f 457/4/6 454/4/6 458/4/6
f 455/4/6 456/4/6 459/4/6
f 459/4/6 456/4/6 460/4/6
f 461/4/6 462/4/6 465/4/6
f 462/3/6 463/3/6 466/3/6
f 465/4/6 462/4/6 466/4/6
f 463/4/6 464/4/6 467/4/6
f 466/3/6 463/3/6 467/3/6
f 467/4/6 464/4/6 468/4/6
f 466/3/6 467/3/6 470/3/6
f 470/3/6 467/3/6 471/3/6
f 469/4/6 470/4/6 473/4/6
f 470/3/6 471/3/6 473/3/6
f 471/4/6 472/4/6 474/4/6
f 473/3/6 471/3/6 474/3/6
f 469/4/6 473/4/6 475/4/6
f 475/4/6 473/4/6 476/4/6
f 474/4/6 472/4/6 477/4/6
f 477/4/6 472/4/6 478/4/6
f 479/1/6 480/1/6 481/1/6
f 481/1/6 480/1/6 482/1/6
f 481/2/6 482/2/6 483/2/6
f 483/2/6 482/2/6 484/2/6
f 483/1/6 484/1/6 485/1/6
f 485/1/6 484/1/6 486/1/6
f 487/4/6 488/4/6 489/4/6
f 489/4/6 488/4/6 490/4/6
f 489/5/6 490/5/6 492/5/6
f 492/5/6 490/5/6 493/5/6
f 491/5/6 492/5/6 495/5/6
f 495/5/6 492/5/6 496/5/6
f 493/5/6 494/5/6 497/5/6
f 497/5/6 494/5/6 498/5/6
f 499/2/6 500/2/6 501/2/6
f 501/2/6 500/2/6 502/2/6
