# MagicaVoxel @ Ephtracy

# group
o 

# material
mtllib Candle.mtl
usemtl palette

# normals
vn -1 0 0
vn 1 0 0
vn 0 0 1
vn 0 0 -1
vn 0 -1 0
vn 0 1 0

# texcoords
vt 0.294922 0.5
vt 0.302734 0.5
vt 0.994141 0.5

# verts
v -0.3 0 0.2
v -0.3 0 0
v -0.3 0.1 0.2
v -0.3 0.1 0
v -0.2 0 0.3
v -0.2 0 0.2
v -0.2 0 0
v -0.2 0 -0.2
v -0.2 0.1 0.3
v -0.2 0.1 0.2
v -0.2 0.1 0
v -0.2 0.2 0.2
v -0.2 0.2 0.1
v -0.2 0.3 0.2
v -0.2 0.3 0.1
v -0.2 0.4 0.2
v -0.2 0.4 0.1
v -0.2 0.6 0.1
v -0.2 0.6 0
v -0.2 0.7 0
v -0.2 0.7 -0.2
v -0.1 0 -0.2
v -0.1 0 -0.3
v -0.1 0.2 0.2
v -0.1 0.2 0.1
v -0.1 0.3 0.2
v -0.1 0.3 0.1
v -0.1 0.4 0.2
v -0.1 0.4 0.1
v -0.1 0.6 0.2
v -0.1 0.6 0.1
v -0.1 0.6 0
v -0.1 0.7 0.1
v -0.1 0.7 0
v -0.1 0.7 -0.2
v -0.1 0.7 -0.3
v 0 0.6 0.2
v 0 0.6 0.1
v 0 0.7 0.2
v 0 0.7 0.1
v 0 0.7 0
v 0 0.7 -0.1
v 0 0.8 0
v 0 0.8 -0.1
v 0 0.9 0
v 0 0.9 -0.1
v 0 0 0.3
v 0 0 0.2
v 0 0.1 0.3
v 0 0.1 0.2
v 0.1 0.7 0
v 0.1 0.7 -0.1
v 0.1 0.8 0
v 0.1 0.8 -0.1
v 0.1 0.9 0
v 0.1 0.9 -0.1
v 0.2 0 0.2
v 0.2 0 0.1
v 0.2 0 -0.2
v 0.2 0 -0.3
v 0.2 0.7 0.2
v 0.2 0.7 0.1
v 0.2 0.7 -0.2
v 0.2 0.7 -0.3
v 0.3 0 0.1
v 0.3 0 -0.2
v 0.3 0.7 0.1
v 0.3 0.7 -0.2
v -0.2 0 0.3
v -0.2 0.1 0.3
v 0 0 0.3
v 0 0.1 0.3
v -0.3 0 0.2
v -0.3 0.1 0.2
v -0.2 0 0.2
v -0.2 0.1 0.2
v -0.2 0.2 0.2
v -0.2 0.3 0.2
v -0.2 0.4 0.2
v -0.1 0.2 0.2
v -0.1 0.3 0.2
v -0.1 0.4 0.2
v -0.1 0.6 0.2
v 0 0 0.2
v 0 0.1 0.2
v 0 0.6 0.2
v 0 0.7 0.2
v 0.2 0 0.2
v 0.2 0.7 0.2
v -0.2 0.2 0.1
v -0.2 0.3 0.1
v -0.2 0.4 0.1
v -0.2 0.6 0.1
v -0.1 0.2 0.1
v -0.1 0.3 0.1
v -0.1 0.4 0.1
v -0.1 0.6 0.1
v -0.1 0.7 0.1
v 0 0.6 0.1
v 0 0.7 0.1
v 0.2 0 0.1
v 0.2 0.7 0.1
v 0.3 0 0.1
v 0.3 0.7 0.1
v -0.2 0.6 0
v -0.2 0.7 0
v -0.1 0.6 0
v -0.1 0.7 0
v 0 0.7 0
v 0 0.8 0
v 0 0.9 0
v 0.1 0.7 0
v 0.1 0.8 0
v 0.1 0.9 0
v -0.3 0 0
v -0.3 0.1 0
v -0.2 0 0
v -0.2 0.1 0
v 0 0.7 -0.1
v 0 0.8 -0.1
v 0 0.9 -0.1
v 0.1 0.7 -0.1
v 0.1 0.8 -0.1
v 0.1 0.9 -0.1
v -0.2 0 -0.2
v -0.2 0.7 -0.2
v -0.1 0 -0.2
v -0.1 0.7 -0.2
v 0.2 0 -0.2
v 0.2 0.7 -0.2
v 0.3 0 -0.2
v 0.3 0.7 -0.2
v -0.1 0 -0.3
v -0.1 0.7 -0.3
v 0.2 0 -0.3
v 0.2 0.7 -0.3
v -0.2 0 0.3
v 0 0 0.3
v -0.3 0 0.2
v -0.2 0 0.2
v 0 0 0.2
v 0.2 0 0.2
v 0.2 0 0.1
v 0.3 0 0.1
v -0.3 0 0
v -0.2 0 0
v -0.2 0 -0.2
v -0.1 0 -0.2
v 0.2 0 -0.2
v 0.3 0 -0.2
v -0.1 0 -0.3
v 0.2 0 -0.3
v -0.2 0.3 0.2
v -0.1 0.3 0.2
v -0.2 0.3 0.1
v -0.1 0.3 0.1
v -0.2 0.1 0.3
v 0 0.1 0.3
v -0.3 0.1 0.2
v -0.2 0.1 0.2
v 0 0.1 0.2
v -0.3 0.1 0
v -0.2 0.1 0
v -0.2 0.2 0.2
v -0.1 0.2 0.2
v -0.2 0.2 0.1
v -0.1 0.2 0.1
v -0.2 0.4 0.2
v -0.1 0.4 0.2
v -0.2 0.4 0.1
v -0.1 0.4 0.1
v -0.1 0.6 0.2
v 0 0.6 0.2
v -0.2 0.6 0.1
v -0.1 0.6 0.1
v 0 0.6 0.1
v -0.2 0.6 0
v -0.1 0.6 0
v 0 0.7 0.2
v 0.2 0.7 0.2
v -0.1 0.7 0.1
v 0 0.7 0.1
v 0.2 0.7 0.1
v 0.3 0.7 0.1
v -0.2 0.7 0
v -0.1 0.7 0
v 0 0.7 0
v 0.1 0.7 0
v 0 0.7 -0.1
v 0.1 0.7 -0.1
v -0.2 0.7 -0.2
v -0.1 0.7 -0.2
v 0.2 0.7 -0.2
v 0.3 0.7 -0.2
v -0.1 0.7 -0.3
v 0.2 0.7 -0.3
v 0 0.9 0
v 0.1 0.9 0
v 0 0.9 -0.1
v 0.1 0.9 -0.1

# faces
f 3/1/1 2/1/1 1/1/1
f 4/1/1 2/1/1 3/1/1
f 9/1/1 6/1/1 5/1/1
f 10/1/1 6/1/1 9/1/1
f 11/1/1 8/1/1 7/1/1
f 12/1/1 11/1/1 10/1/1
f 13/1/1 11/1/1 12/1/1
f 15/1/1 11/1/1 13/1/1
f 16/1/1 15/1/1 14/1/1
f 17/1/1 11/1/1 15/1/1
f 17/1/1 15/1/1 16/1/1
f 18/1/1 11/1/1 17/1/1
f 19/1/1 8/1/1 11/1/1
f 19/1/1 11/1/1 18/1/1
f 20/1/1 8/1/1 19/1/1
f 21/1/1 8/1/1 20/1/1
f 26/1/1 25/1/1 24/1/1
f 27/1/1 25/1/1 26/1/1
f 30/1/1 29/1/1 28/1/1
f 31/1/1 29/1/1 30/1/1
f 33/1/1 32/1/1 31/1/1
f 34/1/1 32/1/1 33/1/1
f 35/1/1 23/1/1 22/1/1
f 36/1/1 23/1/1 35/1/1
f 39/1/1 38/1/1 37/1/1
f 40/1/1 38/1/1 39/1/1
f 43/3/1 42/3/1 41/3/1
f 44/3/1 42/3/1 43/3/1
f 45/2/1 44/2/1 43/2/1
f 46/2/1 44/2/1 45/2/1
f 47/1/2 48/1/2 49/1/2
f 49/1/2 48/1/2 50/1/2
f 51/3/2 52/3/2 53/3/2
f 53/3/2 52/3/2 54/3/2
f 53/2/2 54/2/2 55/2/2
f 55/2/2 54/2/2 56/2/2
f 57/1/2 58/1/2 61/1/2
f 61/1/2 58/1/2 62/1/2
f 59/1/2 60/1/2 63/1/2
f 63/1/2 60/1/2 64/1/2
f 65/1/2 66/1/2 67/1/2
f 67/1/2 66/1/2 68/1/2
f 71/1/3 70/1/3 69/1/3
f 72/1/3 70/1/3 71/1/3
f 75/1/3 74/1/3 73/1/3
f 76/1/3 74/1/3 75/1/3
f 80/1/3 77/1/3 76/1/3
f 81/1/3 79/1/3 78/1/3
f 82/1/3 79/1/3 81/1/3
f 85/1/3 80/1/3 76/1/3
f 85/1/3 83/1/3 82/1/3
f 85/1/3 82/1/3 81/1/3
f 85/1/3 81/1/3 80/1/3
f 86/1/3 83/1/3 85/1/3
f 88/1/3 85/1/3 84/1/3
f 88/1/3 87/1/3 86/1/3
f 88/1/3 86/1/3 85/1/3
f 89/1/3 87/1/3 88/1/3
f 94/1/3 91/1/3 90/1/3
f 95/1/3 91/1/3 94/1/3
f 96/1/3 93/1/3 92/1/3
f 97/1/3 93/1/3 96/1/3
f 99/1/3 98/1/3 97/1/3
f 100/1/3 98/1/3 99/1/3
f 103/1/3 102/1/3 101/1/3
f 104/1/3 102/1/3 103/1/3
f 107/1/3 106/1/3 105/1/3
f 108/1/3 106/1/3 107/1/3
f 112/3/3 110/3/3 109/3/3
f 113/2/3 111/2/3 110/2/3
f 113/3/3 110/3/3 112/3/3
f 114/2/3 111/2/3 113/2/3
f 115/1/4 116/1/4 117/1/4
f 117/1/4 116/1/4 118/1/4
f 119/3/4 120/3/4 122/3/4
f 120/2/4 121/2/4 123/2/4
f 122/3/4 120/3/4 123/3/4
f 123/2/4 121/2/4 124/2/4
f 125/1/4 126/1/4 127/1/4
f 127/1/4 126/1/4 128/1/4
f 129/1/4 130/1/4 131/1/4
f 131/1/4 130/1/4 132/1/4
f 133/1/4 134/1/4 135/1/4
f 135/1/4 134/1/4 136/1/4
f 140/1/5 138/1/5 137/1/5
f 141/1/5 138/1/5 140/1/5
f 143/1/5 140/1/5 139/1/5
f 143/1/5 142/1/5 141/1/5
f 143/1/5 141/1/5 140/1/5
f 145/1/5 143/1/5 139/1/5
f 145/1/5 144/1/5 143/1/5
f 146/1/5 144/1/5 145/1/5
f 147/1/5 144/1/5 146/1/5
f 148/1/5 144/1/5 147/1/5
f 149/1/5 144/1/5 148/1/5
f 150/1/5 144/1/5 149/1/5
f 151/1/5 149/1/5 148/1/5
f 152/1/5 149/1/5 151/1/5
f 155/1/5 154/1/5 153/1/5
f 156/1/5 154/1/5 155/1/5
f 157/1/6 158/1/6 160/1/6
f 160/1/6 158/1/6 161/1/6
f 159/1/6 160/1/6 162/1/6
f 162/1/6 160/1/6 163/1/6
f 164/1/6 165/1/6 166/1/6
f 166/1/6 165/1/6 167/1/6
f 168/1/6 169/1/6 170/1/6
f 170/1/6 169/1/6 171/1/6
f 172/1/6 173/1/6 175/1/6
f 175/1/6 173/1/6 176/1/6
f 174/1/6 175/1/6 177/1/6
f 177/1/6 175/1/6 178/1/6
f 179/1/6 180/1/6 182/1/6
f 182/1/6 180/1/6 183/1/6
f 181/1/6 182/1/6 186/1/6
f 183/1/6 184/1/6 186/1/6
f 182/1/6 183/1/6 186/1/6
f 186/1/6 184/1/6 187/1/6
f 187/1/6 184/1/6 188/1/6
f 185/1/6 186/1/6 189/1/6
f 186/1/6 187/1/6 189/1/6
f 188/1/6 184/1/6 190/1/6
f 185/1/6 189/1/6 191/1/6
f 189/1/6 190/1/6 191/1/6
f 191/1/6 190/1/6 192/1/6
f 190/1/6 184/1/6 193/1/6
f 192/1/6 190/1/6 193/1/6
f 193/1/6 184/1/6 194/1/6
f 192/1/6 193/1/6 195/1/6
f 195/1/6 193/1/6 196/1/6
f 197/2/6 198/2/6 199/2/6
f 199/2/6 198/2/6 200/2/6
