# This file uses centimeters as units for non-parametric coordinates.

mtllib StepsCollisionModel.mtl
g default
v -1.700000 1.000000 4.400000
v 1.700000 1.000000 4.400000
v -1.700000 1.100000 4.400000
v 1.700000 1.100000 4.400000
v -3.049241 0.700000 3.016202
v 3.049241 0.700000 3.016202
v 3.049241 0.700000 9.583798
v 1.700000 1.000000 8.200000
v 1.700000 1.100000 8.200000
v -3.049241 0.700000 9.583798
v -1.700000 1.000000 8.200000
v -1.700000 1.100000 8.200000
vt 0.375000 0.000000
vt 0.625000 0.000000
vt 0.375000 0.250000
vt 0.625000 0.250000
vt 0.375000 0.500000
vt 0.625000 0.500000
vt 0.375000 0.750000
vt 0.625000 0.750000
vt 0.375000 1.000000
vt 0.625000 1.000000
vt 0.875000 0.000000
vt 0.875000 0.250000
vt 0.125000 0.000000
vt 0.125000 0.250000
vt 0.625000 0.000000
vt 0.875000 0.000000
vt 0.875000 0.250000
vt 0.625000 0.250000
vt 0.125000 0.000000
vt 0.375000 0.000000
vt 0.375000 0.250000
vt 0.125000 0.250000
vn 0.000000 0.000000 1.000000
vn 0.000000 0.000000 1.000000
vn 0.000000 0.000000 1.000000
vn 0.000000 0.000000 1.000000
vn -0.000000 0.960671 -0.277691
vn -0.000000 0.960671 -0.277691
vn -0.000000 0.960671 -0.277691
vn -0.000000 0.960671 -0.277691
vn 0.000000 -0.977297 0.211873
vn 0.000000 -0.977297 0.211873
vn 0.000000 -0.977297 0.211873
vn 0.000000 -0.977297 0.211873
vn -0.217047 -0.976161 0.000000
vn -0.217047 -0.976161 0.000000
vn -0.217047 -0.976161 0.000000
vn -0.217047 -0.976161 0.000000
vn 0.284235 0.958755 0.000000
vn 0.284235 0.958755 0.000000
vn 0.284235 0.958755 0.000000
vn 0.284235 0.958755 0.000000
vn -1.000000 0.000000 0.000000
vn -1.000000 0.000000 0.000000
vn -1.000000 0.000000 0.000000
vn -1.000000 0.000000 0.000000
vn 0.217047 -0.976161 0.000000
vn 0.217047 -0.976161 0.000000
vn 0.217047 -0.976161 0.000000
vn 0.217047 -0.976161 0.000000
vn 1.000000 0.000000 0.000000
vn 1.000000 0.000000 0.000000
vn 1.000000 0.000000 0.000000
vn 1.000000 0.000000 0.000000
vn -0.284235 0.958755 0.000000
vn -0.284235 0.958755 0.000000
vn -0.284235 0.958755 0.000000
vn -0.284235 0.958755 0.000000
vn 0.000000 -0.977297 -0.211873
vn 0.000000 -0.977297 -0.211873
vn 0.000000 -0.977297 -0.211873
vn 0.000000 -0.977297 -0.211873
vn -0.000000 0.960671 0.277691
vn -0.000000 0.960671 0.277691
vn -0.000000 0.960671 0.277691
vn -0.000000 0.960671 0.277691
vn 0.000000 0.000000 -1.000000
vn 0.000000 0.000000 -1.000000
vn 0.000000 0.000000 -1.000000
vn 0.000000 0.000000 -1.000000
s off
g pCube1
usemtl initialShadingGroup
f 1/1/1 2/2/2 4/4/3 3/3/4
f 3/3/5 4/4/6 6/6/7 5/5/8
f 5/7/9 6/8/10 2/10/11 1/9/12
f 2/2/13 6/11/14 7/16/15 8/15/16
f 6/12/17 4/4/18 9/18/19 7/17/20
f 4/4/21 2/2/22 8/15/23 9/18/24
f 5/13/25 1/1/26 11/20/27 10/19/28
f 1/1/29 3/3/30 12/21/31 11/20/32
f 3/3/33 5/14/34 10/22/35 12/21/36
f 8/15/37 7/16/38 10/19/39 11/20/40
f 7/17/41 9/18/42 12/21/43 10/22/44
f 9/18/45 8/15/46 11/20/47 12/21/48
