# This file uses centimeters as units for non-parametric coordinates.

mtllib SpeechCollision.mtl
g default
v -2.983159 0.700000 2.252437
v 2.983159 0.700000 2.252437
v -2.300000 1.000000 2.100000
v 2.300000 1.000000 2.100000
v -2.300000 1.000000 1.400000
v 2.300000 1.000000 1.400000
v -2.983159 0.700000 1.100000
v 2.983159 0.700000 1.100000
vt 0.375000 0.000000
vt 0.625000 0.000000
vt 0.375000 0.250000
vt 0.625000 0.250000
vt 0.375000 0.500000
vt 0.625000 0.500000
vt 0.375000 0.750000
vt 0.625000 0.750000
vt 0.875000 0.000000
vt 0.875000 0.250000
vt 0.125000 0.000000
vt 0.125000 0.250000
vn 0.000000 0.452998 0.891512
vn 0.000000 0.452998 0.891512
vn 0.000000 0.452998 0.891512
vn 0.000000 0.452998 0.891512
vn 0.000000 0.707107 -0.707107
vn 0.000000 0.707107 -0.707107
vn 0.000000 0.707107 -0.707107
vn 0.000000 0.707107 -0.707107
vn 0.402076 0.915606 0.000000
vn 0.402076 0.915606 0.000000
vn 0.402076 0.915606 0.000000
vn 0.402076 0.915606 0.000000
vn -0.402076 0.915606 0.000000
vn -0.402076 0.915606 0.000000
vn -0.402076 0.915606 0.000000
vn -0.402076 0.915606 0.000000
s off
g pCube2
usemtl initialShadingGroup
f 1/1/1 2/2/2 4/4/3 3/3/4
f 5/5/5 6/6/6 8/8/7 7/7/8
f 2/2/9 8/9/10 6/10/11 4/4/12
f 7/11/13 1/1/14 3/3/15 5/12/16
