# MagicaVoxel @ Ephtracy

# group
o 

# material
mtllib CornerCorridor-1.mtl
usemtl palette

# normals
vn 0 0 1
vn 0 0 -1
vn -1 0 0
vn 1 0 0
vn 0 -1 0
vn 0 1 0

# texcoords
vt 0.154297 0.5

# verts
v -12.6 0 0
v -8.7 0 0
v -12.6 0.7 0
v -8.9 0.7 0
v -12.6 2.5 0
v -12.5 2.5 0
v -12.6 2.7 0
v -12.5 2.7 0
v -8.9 2.7 0
v -8.7 2.7 0
v -9.1 0.7 -0.1
v -8.9 0.7 -0.1
v -9.1 2.7 -0.1
v -8.9 2.7 -0.1
v -9.3 0.7 -0.2
v -9.1 0.7 -0.2
v -9.3 2.7 -0.2
v -9.1 2.7 -0.2
v -9.4 0.7 -0.3
v -9.3 0.7 -0.3
v -9.4 2.7 -0.3
v -9.3 2.7 -0.3
v -9.6 0.7 -0.4
v -9.4 0.7 -0.4
v -9.6 2.7 -0.4
v -9.4 2.7 -0.4
v -9.8 0.7 -0.5
v -9.6 0.7 -0.5
v -9.8 2.7 -0.5
v -9.6 2.7 -0.5
v -10 0.7 -0.6
v -9.8 0.7 -0.6
v -10 2.7 -0.6
v -9.8 2.7 -0.6
v -12.6 0.7 -0.7
v -12.5 0.7 -0.7
v -10.3 0.7 -0.7
v -10 0.7 -0.7
v -12.6 2.5 -0.7
v -12.5 2.5 -0.7
v -10.3 2.7 -0.7
v -10 2.7 -0.7
v -10.6 0.7 -0.8
v -10.3 0.7 -0.8
v -10.6 2.7 -0.8
v -10.3 2.7 -0.8
v -11.1 0.7 -0.9
v -10.6 0.7 -0.9
v -11.1 2.7 -0.9
v -10.6 2.7 -0.9
v -11.7 0.7 -1
v -11.1 0.7 -1
v -11.7 2.7 -1
v -11.1 2.7 -1
v -12.4 0.7 -1.1
v -11.7 0.7 -1.1
v -12.4 2.7 -1.1
v -11.7 2.7 -1.1
v -12.5 0.7 -1.2
v -12.4 0.7 -1.2
v -12.5 2.7 -1.2
v -12.4 2.7 -1.2
v -8.8 0 -0.1
v -8.7 0 -0.1
v -8.8 2.7 -0.1
v -8.7 2.7 -0.1
v -9 0 -0.2
v -8.8 0 -0.2
v -9 2.7 -0.2
v -8.8 2.7 -0.2
v -9.2 0 -0.3
v -9 0 -0.3
v -9.2 2.7 -0.3
v -9 2.7 -0.3
v -9.3 0 -0.4
v -9.2 0 -0.4
v -9.3 2.7 -0.4
v -9.2 2.7 -0.4
v -9.5 0 -0.5
v -9.3 0 -0.5
v -9.5 2.7 -0.5
v -9.3 2.7 -0.5
v -9.7 0 -0.6
v -9.5 0 -0.6
v -9.7 2.7 -0.6
v -9.5 2.7 -0.6
v -9.9 0 -0.7
v -9.7 0 -0.7
v -9.9 2.7 -0.7
v -9.7 2.7 -0.7
v -10.2 0 -0.8
v -9.9 0 -0.8
v -10.2 2.7 -0.8
v -9.9 2.7 -0.8
v -10.5 0 -0.9
v -10.2 0 -0.9
v -10.5 2.7 -0.9
v -10.2 2.7 -0.9
v -11 0 -1
v -10.5 0 -1
v -11 2.7 -1
v -10.5 2.7 -1
v -11.6 0 -1.1
v -11 0 -1.1
v -11.6 2.7 -1.1
v -11 2.7 -1.1
v -12.3 0 -1.2
v -11.6 0 -1.2
v -12.3 2.7 -1.2
v -11.6 2.7 -1.2
v -12.6 0 -1.3
v -12.3 0 -1.3
v -12.6 2.7 -1.3
v -12.3 2.7 -1.3
v -12.6 0 0
v -12.6 0.7 0
v -12.6 2.5 0
v -12.6 2.7 0
v -12.6 0.7 -0.7
v -12.6 2.5 -0.7
v -12.6 0 -1.3
v -12.6 2.7 -1.3
v -12.4 0.7 -1.1
v -12.4 2.7 -1.1
v -12.4 0.7 -1.2
v -12.4 2.7 -1.2
v -11.7 0.7 -1
v -11.7 2.7 -1
v -11.7 0.7 -1.1
v -11.7 2.7 -1.1
v -11.1 0.7 -0.9
v -11.1 2.7 -0.9
v -11.1 0.7 -1
v -11.1 2.7 -1
v -10.6 0.7 -0.8
v -10.6 2.7 -0.8
v -10.6 0.7 -0.9
v -10.6 2.7 -0.9
v -10.3 0.7 -0.7
v -10.3 2.7 -0.7
v -10.3 0.7 -0.8
v -10.3 2.7 -0.8
v -10 0.7 -0.6
v -10 2.7 -0.6
v -10 0.7 -0.7
v -10 2.7 -0.7
v -9.8 0.7 -0.5
v -9.8 2.7 -0.5
v -9.8 0.7 -0.6
v -9.8 2.7 -0.6
v -9.6 0.7 -0.4
v -9.6 2.7 -0.4
v -9.6 0.7 -0.5
v -9.6 2.7 -0.5
v -9.4 0.7 -0.3
v -9.4 2.7 -0.3
v -9.4 0.7 -0.4
v -9.4 2.7 -0.4
v -9.3 0.7 -0.2
v -9.3 2.7 -0.2
v -9.3 0.7 -0.3
v -9.3 2.7 -0.3
v -9.1 0.7 -0.1
v -9.1 2.7 -0.1
v -9.1 0.7 -0.2
v -9.1 2.7 -0.2
v -8.9 0.7 0
v -8.9 2.7 0
v -8.9 0.7 -0.1
v -8.9 2.7 -0.1
v -12.5 2.5 0
v -12.5 2.7 0
v -12.5 0.7 -0.7
v -12.5 2.5 -0.7
v -12.5 0.7 -1.2
v -12.5 2.7 -1.2
v -12.3 0 -1.2
v -12.3 2.7 -1.2
v -12.3 0 -1.3
v -12.3 2.7 -1.3
v -11.6 0 -1.1
v -11.6 2.7 -1.1
v -11.6 0 -1.2
v -11.6 2.7 -1.2
v -11 0 -1
v -11 2.7 -1
v -11 0 -1.1
v -11 2.7 -1.1
v -10.5 0 -0.9
v -10.5 2.7 -0.9
v -10.5 0 -1
v -10.5 2.7 -1
v -10.2 0 -0.8
v -10.2 2.7 -0.8
v -10.2 0 -0.9
v -10.2 2.7 -0.9
v -9.9 0 -0.7
v -9.9 2.7 -0.7
v -9.9 0 -0.8
v -9.9 2.7 -0.8
v -9.7 0 -0.6
v -9.7 2.7 -0.6
v -9.7 0 -0.7
v -9.7 2.7 -0.7
v -9.5 0 -0.5
v -9.5 2.7 -0.5
v -9.5 0 -0.6
v -9.5 2.7 -0.6
v -9.3 0 -0.4
v -9.3 2.7 -0.4
v -9.3 0 -0.5
v -9.3 2.7 -0.5
v -9.2 0 -0.3
v -9.2 2.7 -0.3
v -9.2 0 -0.4
v -9.2 2.7 -0.4
v -9 0 -0.2
v -9 2.7 -0.2
v -9 0 -0.3
v -9 2.7 -0.3
v -8.8 0 -0.1
v -8.8 2.7 -0.1
v -8.8 0 -0.2
v -8.8 2.7 -0.2
v -8.7 0 0
v -8.7 2.7 0
v -8.7 0 -0.1
v -8.7 2.7 -0.1
v -12.6 0 0
v -12.6 0 -1.3
v -12.3 0 -1.2
v -12.3 0 -1.3
v -11.6 0 -1.1
v -11.6 0 -1.2
v -11 0 -1
v -11 0 -1.1
v -10.5 0 -0.9
v -10.5 0 -1
v -10.2 0 -0.8
v -10.2 0 -0.9
v -9.9 0 -0.7
v -9.9 0 -0.8
v -9.7 0 -0.6
v -9.7 0 -0.7
v -9.5 0 -0.5
v -9.5 0 -0.6
v -9.3 0 -0.4
v -9.3 0 -0.5
v -9.2 0 -0.3
v -9.2 0 -0.4
v -9 0 -0.2
v -9 0 -0.3
v -8.8 0 -0.1
v -8.8 0 -0.2
v -8.7 0 0
v -8.7 0 -0.1
v -12.6 2.5 0
v -12.6 2.5 -0.7
v -12.5 2.5 0
v -12.5 2.5 -0.7
v -12.6 0.7 0
v -12.6 0.7 -0.7
v -12.5 0.7 -0.7
v -12.5 0.7 -1.2
v -12.4 0.7 -1.1
v -12.4 0.7 -1.2
v -11.7 0.7 -1
v -11.7 0.7 -1.1
v -11.1 0.7 -0.9
v -11.1 0.7 -1
v -10.6 0.7 -0.8
v -10.6 0.7 -0.9
v -10.3 0.7 -0.7
v -10.3 0.7 -0.8
v -10 0.7 -0.6
v -10 0.7 -0.7
v -9.8 0.7 -0.5
v -9.8 0.7 -0.6
v -9.6 0.7 -0.4
v -9.6 0.7 -0.5
v -9.4 0.7 -0.3
v -9.4 0.7 -0.4
v -9.3 0.7 -0.2
v -9.3 0.7 -0.3
v -9.1 0.7 -0.1
v -9.1 0.7 -0.2
v -8.9 0.7 0
v -8.9 0.7 -0.1
v -12.6 2.7 0
v -12.6 2.7 -1.3
v -12.5 2.7 0
v -12.5 2.7 -1.2
v -12.4 2.7 -1.1
v -12.4 2.7 -1.2
v -12.3 2.7 -1.2
v -12.3 2.7 -1.3
v -11.7 2.7 -1
v -11.7 2.7 -1.1
v -11.6 2.7 -1.1
v -11.6 2.7 -1.2
v -11.1 2.7 -0.9
v -11.1 2.7 -1
v -11 2.7 -1
v -11 2.7 -1.1
v -10.6 2.7 -0.8
v -10.6 2.7 -0.9
v -10.5 2.7 -0.9
v -10.5 2.7 -1
v -10.3 2.7 -0.7
v -10.3 2.7 -0.8
v -10.2 2.7 -0.8
v -10.2 2.7 -0.9
v -10 2.7 -0.6
v -10 2.7 -0.7
v -9.9 2.7 -0.7
v -9.9 2.7 -0.8
v -9.8 2.7 -0.5
v -9.8 2.7 -0.6
v -9.7 2.7 -0.6
v -9.7 2.7 -0.7
v -9.6 2.7 -0.4
v -9.6 2.7 -0.5
v -9.5 2.7 -0.5
v -9.5 2.7 -0.6
v -9.4 2.7 -0.3
v -9.4 2.7 -0.4
v -9.3 2.7 -0.2
v -9.3 2.7 -0.3
v -9.3 2.7 -0.4
v -9.3 2.7 -0.5
v -9.2 2.7 -0.3
v -9.2 2.7 -0.4
v -9.1 2.7 -0.1
v -9.1 2.7 -0.2
v -9 2.7 -0.2
v -9 2.7 -0.3
v -8.9 2.7 0
v -8.9 2.7 -0.1
v -8.8 2.7 -0.1
v -8.8 2.7 -0.2
v -8.7 2.7 0
v -8.7 2.7 -0.1

# faces
f 1/1/1 2/1/1 3/1/1
f 3/1/1 2/1/1 4/1/1
f 5/1/1 6/1/1 7/1/1
f 7/1/1 6/1/1 8/1/1
f 4/1/1 2/1/1 9/1/1
f 9/1/1 2/1/1 10/1/1
f 11/1/1 12/1/1 13/1/1
f 13/1/1 12/1/1 14/1/1
f 15/1/1 16/1/1 17/1/1
f 17/1/1 16/1/1 18/1/1
f 19/1/1 20/1/1 21/1/1
f 21/1/1 20/1/1 22/1/1
f 23/1/1 24/1/1 25/1/1
f 25/1/1 24/1/1 26/1/1
f 27/1/1 28/1/1 29/1/1
f 29/1/1 28/1/1 30/1/1
f 31/1/1 32/1/1 33/1/1
f 33/1/1 32/1/1 34/1/1
f 35/1/1 36/1/1 39/1/1
f 39/1/1 36/1/1 40/1/1
f 37/1/1 38/1/1 41/1/1
f 41/1/1 38/1/1 42/1/1
f 43/1/1 44/1/1 45/1/1
f 45/1/1 44/1/1 46/1/1
f 47/1/1 48/1/1 49/1/1
f 49/1/1 48/1/1 50/1/1
f 51/1/1 52/1/1 53/1/1
f 53/1/1 52/1/1 54/1/1
f 55/1/1 56/1/1 57/1/1
f 57/1/1 56/1/1 58/1/1
f 59/1/1 60/1/1 61/1/1
f 61/1/1 60/1/1 62/1/1
f 65/1/2 64/1/2 63/1/2
f 66/1/2 64/1/2 65/1/2
f 69/1/2 68/1/2 67/1/2
f 70/1/2 68/1/2 69/1/2
f 73/1/2 72/1/2 71/1/2
f 74/1/2 72/1/2 73/1/2
f 77/1/2 76/1/2 75/1/2
f 78/1/2 76/1/2 77/1/2
f 81/1/2 80/1/2 79/1/2
f 82/1/2 80/1/2 81/1/2
f 85/1/2 84/1/2 83/1/2
f 86/1/2 84/1/2 85/1/2
f 89/1/2 88/1/2 87/1/2
f 90/1/2 88/1/2 89/1/2
f 93/1/2 92/1/2 91/1/2
f 94/1/2 92/1/2 93/1/2
f 97/1/2 96/1/2 95/1/2
f 98/1/2 96/1/2 97/1/2
f 101/1/2 100/1/2 99/1/2
f 102/1/2 100/1/2 101/1/2
f 105/1/2 104/1/2 103/1/2
f 106/1/2 104/1/2 105/1/2
f 109/1/2 108/1/2 107/1/2
f 110/1/2 108/1/2 109/1/2
f 113/1/2 112/1/2 111/1/2
f 114/1/2 112/1/2 113/1/2
f 115/1/3 116/1/3 119/1/3
f 117/1/3 118/1/3 120/1/3
f 115/1/3 119/1/3 121/1/3
f 119/1/3 120/1/3 121/1/3
f 120/1/3 118/1/3 122/1/3
f 121/1/3 120/1/3 122/1/3
f 123/1/3 124/1/3 125/1/3
f 125/1/3 124/1/3 126/1/3
f 127/1/3 128/1/3 129/1/3
f 129/1/3 128/1/3 130/1/3
f 131/1/3 132/1/3 133/1/3
f 133/1/3 132/1/3 134/1/3
f 135/1/3 136/1/3 137/1/3
f 137/1/3 136/1/3 138/1/3
f 139/1/3 140/1/3 141/1/3
f 141/1/3 140/1/3 142/1/3
f 143/1/3 144/1/3 145/1/3
f 145/1/3 144/1/3 146/1/3
f 147/1/3 148/1/3 149/1/3
f 149/1/3 148/1/3 150/1/3
f 151/1/3 152/1/3 153/1/3
f 153/1/3 152/1/3 154/1/3
f 155/1/3 156/1/3 157/1/3
f 157/1/3 156/1/3 158/1/3
f 159/1/3 160/1/3 161/1/3
f 161/1/3 160/1/3 162/1/3
f 163/1/3 164/1/3 165/1/3
f 165/1/3 164/1/3 166/1/3
f 167/1/3 168/1/3 169/1/3
f 169/1/3 168/1/3 170/1/3
f 174/1/4 172/1/4 171/1/4
f 175/1/4 174/1/4 173/1/4
f 176/1/4 172/1/4 174/1/4
f 176/1/4 174/1/4 175/1/4
f 179/1/4 178/1/4 177/1/4
f 180/1/4 178/1/4 179/1/4
f 183/1/4 182/1/4 181/1/4
f 184/1/4 182/1/4 183/1/4
f 187/1/4 186/1/4 185/1/4
f 188/1/4 186/1/4 187/1/4
f 191/1/4 190/1/4 189/1/4
f 192/1/4 190/1/4 191/1/4
f 195/1/4 194/1/4 193/1/4
f 196/1/4 194/1/4 195/1/4
f 199/1/4 198/1/4 197/1/4
f 200/1/4 198/1/4 199/1/4
f 203/1/4 202/1/4 201/1/4
f 204/1/4 202/1/4 203/1/4
f 207/1/4 206/1/4 205/1/4
f 208/1/4 206/1/4 207/1/4
f 211/1/4 210/1/4 209/1/4
f 212/1/4 210/1/4 211/1/4
f 215/1/4 214/1/4 213/1/4
f 216/1/4 214/1/4 215/1/4
f 219/1/4 218/1/4 217/1/4
f 220/1/4 218/1/4 219/1/4
f 223/1/4 222/1/4 221/1/4
f 224/1/4 222/1/4 223/1/4
f 227/1/4 226/1/4 225/1/4
f 228/1/4 226/1/4 227/1/4
f 229/1/5 230/1/5 231/1/5
f 231/1/5 230/1/5 232/1/5
f 229/1/5 231/1/5 233/1/5
f 233/1/5 231/1/5 234/1/5
f 229/1/5 233/1/5 235/1/5
f 235/1/5 233/1/5 236/1/5
f 229/1/5 235/1/5 237/1/5
f 237/1/5 235/1/5 238/1/5
f 229/1/5 237/1/5 239/1/5
f 239/1/5 237/1/5 240/1/5
f 229/1/5 239/1/5 241/1/5
f 241/1/5 239/1/5 242/1/5
f 229/1/5 241/1/5 243/1/5
f 243/1/5 241/1/5 244/1/5
f 229/1/5 243/1/5 245/1/5
f 245/1/5 243/1/5 246/1/5
f 229/1/5 245/1/5 247/1/5
f 247/1/5 245/1/5 248/1/5
f 229/1/5 247/1/5 249/1/5
f 249/1/5 247/1/5 250/1/5
f 229/1/5 249/1/5 251/1/5
f 251/1/5 249/1/5 252/1/5
f 229/1/5 251/1/5 253/1/5
f 253/1/5 251/1/5 254/1/5
f 229/1/5 253/1/5 255/1/5
f 255/1/5 253/1/5 256/1/5
f 257/1/5 258/1/5 259/1/5
f 259/1/5 258/1/5 260/1/5
f 263/1/6 262/1/6 261/1/6
f 265/1/6 264/1/6 263/1/6
f 266/1/6 264/1/6 265/1/6
f 267/1/6 265/1/6 263/1/6
f 268/1/6 265/1/6 267/1/6
f 269/1/6 267/1/6 263/1/6
f 270/1/6 267/1/6 269/1/6
f 271/1/6 269/1/6 263/1/6
f 272/1/6 269/1/6 271/1/6
f 273/1/6 263/1/6 261/1/6
f 273/1/6 271/1/6 263/1/6
f 274/1/6 271/1/6 273/1/6
f 275/1/6 273/1/6 261/1/6
f 276/1/6 273/1/6 275/1/6
f 277/1/6 275/1/6 261/1/6
f 278/1/6 275/1/6 277/1/6
f 279/1/6 277/1/6 261/1/6
f 280/1/6 277/1/6 279/1/6
f 281/1/6 279/1/6 261/1/6
f 282/1/6 279/1/6 281/1/6
f 283/1/6 281/1/6 261/1/6
f 284/1/6 281/1/6 283/1/6
f 285/1/6 283/1/6 261/1/6
f 286/1/6 283/1/6 285/1/6
f 287/1/6 285/1/6 261/1/6
f 288/1/6 285/1/6 287/1/6
f 291/1/6 290/1/6 289/1/6
f 292/1/6 290/1/6 291/1/6
f 294/1/6 290/1/6 292/1/6
f 295/1/6 290/1/6 294/1/6
f 295/1/6 294/1/6 293/1/6
f 296/1/6 290/1/6 295/1/6
f 298/1/6 295/1/6 293/1/6
f 299/1/6 295/1/6 298/1/6
f 299/1/6 298/1/6 297/1/6
f 300/1/6 295/1/6 299/1/6
f 302/1/6 299/1/6 297/1/6
f 303/1/6 299/1/6 302/1/6
f 303/1/6 302/1/6 301/1/6
f 304/1/6 299/1/6 303/1/6
f 306/1/6 303/1/6 301/1/6
f 307/1/6 303/1/6 306/1/6
f 307/1/6 306/1/6 305/1/6
f 308/1/6 303/1/6 307/1/6
f 310/1/6 307/1/6 305/1/6
f 311/1/6 307/1/6 310/1/6
f 311/1/6 310/1/6 309/1/6
f 312/1/6 307/1/6 311/1/6
f 314/1/6 311/1/6 309/1/6
f 315/1/6 311/1/6 314/1/6
f 315/1/6 314/1/6 313/1/6
f 316/1/6 311/1/6 315/1/6
f 318/1/6 315/1/6 313/1/6
f 319/1/6 315/1/6 318/1/6
f 319/1/6 318/1/6 317/1/6
f 320/1/6 315/1/6 319/1/6
f 322/1/6 319/1/6 317/1/6
f 323/1/6 319/1/6 322/1/6
f 323/1/6 322/1/6 321/1/6
f 324/1/6 319/1/6 323/1/6
f 326/1/6 323/1/6 321/1/6
f 328/1/6 326/1/6 325/1/6
f 329/1/6 323/1/6 326/1/6
f 329/1/6 326/1/6 328/1/6
f 330/1/6 323/1/6 329/1/6
f 331/1/6 328/1/6 327/1/6
f 331/1/6 329/1/6 328/1/6
f 332/1/6 329/1/6 331/1/6
f 334/1/6 331/1/6 327/1/6
f 335/1/6 331/1/6 334/1/6
f 335/1/6 334/1/6 333/1/6
f 336/1/6 331/1/6 335/1/6
f 338/1/6 335/1/6 333/1/6
f 339/1/6 335/1/6 338/1/6
f 339/1/6 338/1/6 337/1/6
f 340/1/6 335/1/6 339/1/6
f 341/1/6 339/1/6 337/1/6
f 342/1/6 339/1/6 341/1/6
