# This file uses centimeters as units for non-parametric coordinates.

mtllib CorridorCollision.mtl
g default
v 0.699999 0.700000 -12.600000
v 0.699999 2.500000 -12.600000
v 0.899999 2.500000 -12.100000
v 0.899999 0.700000 -12.100000
v 1.299998 2.500000 -11.600000
v 1.299998 0.700000 -11.600000
v 1.599998 2.500000 -10.000000
v 1.599998 0.700000 -10.000000
v 2.496705 2.500000 -9.000000
v 2.496705 0.700000 -9.000000
v 4.199998 2.500000 -8.600000
v 4.199998 0.700000 -8.600000
v 5.199998 2.500000 -7.900000
v 5.199998 0.700000 -7.900000
v 6.099998 2.500000 -7.200000
v 6.099998 0.700000 -7.200000
v 6.599998 2.500000 -6.100000
v 6.599998 0.700000 -6.100000
v 6.999998 2.500000 -5.100000
v 6.999998 0.700000 -5.100000
v 7.399998 2.500000 -4.100000
v 7.399998 0.700000 -4.100000
v 8.699998 2.500000 -2.700001
v 8.699998 0.700000 -2.700001
v 9.596704 2.500000 -1.600000
v 9.596704 0.700000 -1.600000
v 9.996704 2.500000 -1.400001
v 9.996704 0.700000 -1.400001
v 11.199998 2.500000 -1.200001
v 11.199998 0.700000 -1.200001
v 11.999998 2.500000 -1.000000
v 11.999998 0.700000 -1.000000
v 12.599999 2.500000 -0.700002
v 12.599999 0.700000 -0.700002
v -0.700002 0.700000 -12.600000
v -0.700002 2.500000 -12.600000
v -0.900002 2.500000 -10.938526
v -0.900002 0.700000 -10.938526
v -0.400002 2.500000 -9.600000
v -0.400002 0.700000 -9.600000
v 0.199999 2.500000 -8.600000
v 0.199999 0.700000 -8.600000
v 0.699999 2.500000 -8.100000
v 0.699999 0.700000 -8.100000
v 1.599998 2.500000 -7.700000
v 1.599998 0.700000 -7.700000
v 3.099998 2.500000 -7.400000
v 3.099998 0.700000 -7.400000
v 4.199998 2.500000 -7.000000
v 4.199998 0.700000 -7.000000
v 4.999998 2.500000 -6.300000
v 4.999998 0.700000 -6.300000
v 5.299998 2.500000 -5.200000
v 5.299998 0.700000 -5.200000
v 5.699998 2.500000 -4.100000
v 5.699998 0.700000 -4.100000
v 7.299999 2.500000 -2.099999
v 7.299999 0.700000 -2.099999
v 7.799999 2.500000 -1.400000
v 7.799999 0.700000 -1.400000
v 8.199998 2.500000 -0.600000
v 8.199998 0.700000 -0.600000
v 9.099998 2.500000 0.099999
v 9.099998 0.700000 0.099999
v 10.299998 2.500000 0.700000
v 10.299998 0.700000 0.700000
v 11.199998 2.500000 0.900001
v 11.199998 0.700000 0.900001
v 12.399998 2.500000 0.900001
v 12.399998 0.700000 0.900001
v -0.700001 0.700000 12.600000
v -0.700001 2.500000 12.600000
v -0.900001 2.500000 12.100000
v -0.900001 0.700000 12.100000
v -1.300000 2.500000 11.600000
v -1.300000 0.700000 11.600000
v -1.600000 2.500000 10.000000
v -1.600000 0.700000 10.000000
v -2.496707 2.500000 9.000000
v -2.496707 0.700000 9.000000
v -4.200000 2.500000 8.600000
v -4.200000 0.700000 8.600000
v -5.200000 2.500000 7.900000
v -5.200000 0.700000 7.900000
v -6.100000 2.500000 7.200000
v -6.100000 0.700000 7.200000
v -6.600000 2.500000 6.100000
v -6.600000 0.700000 6.100000
v -7.000000 2.500000 5.100000
v -7.000000 0.700000 5.100000
v -7.400000 2.500000 4.100000
v -7.400000 0.700000 4.100000
v -8.700000 2.500000 2.700001
v -8.700000 0.700000 2.700001
v -9.596706 2.500000 1.600000
v -9.596706 0.700000 1.600000
v -9.996706 2.500000 1.400001
v -9.996706 0.700000 1.400001
v -11.200000 2.500000 1.200001
v -11.200000 0.700000 1.200001
v -12.000000 2.500000 1.000000
v -12.000000 0.700000 1.000000
v -12.600001 2.500000 0.700002
v -12.600001 0.700000 0.700002
v 0.700000 0.700000 12.600000
v 0.700000 2.500000 12.600000
v 0.900000 2.500000 10.938526
v 0.900000 0.700000 10.938526
v 0.400000 2.500000 9.600000
v 0.400000 0.700000 9.600000
v -0.200001 2.500000 8.600000
v -0.200001 0.700000 8.600000
v -0.700001 2.500000 8.100000
v -0.700001 0.700000 8.100000
v -1.600000 2.500000 7.700000
v -1.600000 0.700000 7.700000
v -3.100000 2.500000 7.400000
v -3.100000 0.700000 7.400000
v -4.200000 2.500000 7.000000
v -4.200000 0.700000 7.000000
v -5.000000 2.500000 6.300000
v -5.000000 0.700000 6.300000
v -5.300000 2.500000 5.200000
v -5.300000 0.700000 5.200000
v -5.700000 2.500000 4.100000
v -5.700000 0.700000 4.100000
v -7.300001 2.500000 2.099999
v -7.300001 0.700000 2.099999
v -7.800001 2.500000 1.400000
v -7.800001 0.700000 1.400000
v -8.200000 2.500000 0.600000
v -8.200000 0.700000 0.600000
v -9.100000 2.500000 -0.099999
v -9.100000 0.700000 -0.099999
v -10.300000 2.500000 -0.700000
v -10.300000 0.700000 -0.700000
v -11.200000 2.500000 -0.900001
v -11.200000 0.700000 -0.900001
v -12.400000 2.500000 -0.900001
v -12.400000 0.700000 -0.900001
vt 0.375000 0.000000
vt 0.375000 0.250000
vt 0.125000 0.000000
vt 0.125000 0.250000
vt 0.000000 0.000000
vt 1.000000 0.000000
vt 1.000000 1.000000
vt 0.000000 1.000000
vt 0.000000 0.000000
vt 1.000000 0.000000
vt 1.000000 1.000000
vt 0.000000 1.000000
vt 0.000000 0.000000
vt 1.000000 0.000000
vt 1.000000 1.000000
vt 0.000000 1.000000
vt 0.000000 0.000000
vt 1.000000 0.000000
vt 1.000000 1.000000
vt 0.000000 1.000000
vt 0.000000 0.000000
vt 1.000000 0.000000
vt 1.000000 1.000000
vt 0.000000 1.000000
vt 0.000000 0.000000
vt 1.000000 0.000000
vt 1.000000 1.000000
vt 0.000000 1.000000
vt 0.000000 0.000000
vt 1.000000 0.000000
vt 1.000000 1.000000
vt 0.000000 1.000000
vt 0.000000 0.000000
vt 1.000000 0.000000
vt 1.000000 1.000000
vt 0.000000 1.000000
vt 0.000000 0.000000
vt 1.000000 0.000000
vt 1.000000 1.000000
vt 0.000000 1.000000
vt 0.000000 0.000000
vt 1.000000 0.000000
vt 1.000000 1.000000
vt 0.000000 1.000000
vt 0.000000 0.000000
vt 1.000000 0.000000
vt 1.000000 1.000000
vt 0.000000 1.000000
vt 0.000000 0.000000
vt 1.000000 0.000000
vt 1.000000 1.000000
vt 0.000000 1.000000
vt 0.000000 0.000000
vt 1.000000 0.000000
vt 1.000000 1.000000
vt 0.000000 1.000000
vt 0.000000 0.000000
vt 1.000000 0.000000
vt 1.000000 1.000000
vt 0.000000 1.000000
vt 0.000000 0.000000
vt 1.000000 0.000000
vt 1.000000 1.000000
vt 0.000000 1.000000
vt 0.125000 0.000000
vt 0.375000 0.000000
vt 0.375000 0.250000
vt 0.125000 0.250000
vt 0.000000 0.000000
vt 1.000000 0.000000
vt 1.000000 1.000000
vt 0.000000 1.000000
vt 0.000000 0.000000
vt 1.000000 0.000000
vt 1.000000 1.000000
vt 0.000000 1.000000
vt 0.000000 0.000000
vt 1.000000 0.000000
vt 1.000000 1.000000
vt 0.000000 1.000000
vt 0.000000 0.000000
vt 1.000000 0.000000
vt 1.000000 1.000000
vt 0.000000 1.000000
vt 0.000000 0.000000
vt 1.000000 0.000000
vt 1.000000 1.000000
vt 0.000000 1.000000
vt 0.000000 0.000000
vt 1.000000 0.000000
vt 1.000000 1.000000
vt 0.000000 1.000000
vt 0.000000 0.000000
vt 1.000000 0.000000
vt 1.000000 1.000000
vt 0.000000 1.000000
vt 0.000000 0.000000
vt 1.000000 0.000000
vt 1.000000 1.000000
vt 0.000000 1.000000
vt 0.000000 0.000000
vt 1.000000 0.000000
vt 1.000000 1.000000
vt 0.000000 1.000000
vt 0.000000 0.000000
vt 1.000000 0.000000
vt 1.000000 1.000000
vt 0.000000 1.000000
vt 0.000000 0.000000
vt 1.000000 0.000000
vt 1.000000 1.000000
vt 0.000000 1.000000
vt 0.000000 0.000000
vt 1.000000 0.000000
vt 1.000000 1.000000
vt 0.000000 1.000000
vt 0.000000 0.000000
vt 1.000000 0.000000
vt 1.000000 1.000000
vt 0.000000 1.000000
vt 0.000000 0.000000
vt 1.000000 0.000000
vt 1.000000 1.000000
vt 0.000000 1.000000
vt 0.000000 0.000000
vt 1.000000 0.000000
vt 1.000000 1.000000
vt 0.000000 1.000000
vt 0.000000 0.000000
vt 1.000000 0.000000
vt 1.000000 1.000000
vt 0.000000 1.000000
vt 0.125000 0.000000
vt 0.125000 0.250000
vt 0.375000 0.250000
vt 0.375000 0.000000
vt 0.000000 0.000000
vt 0.000000 1.000000
vt 1.000000 1.000000
vt 1.000000 0.000000
vt 0.000000 0.000000
vt 0.000000 1.000000
vt 1.000000 1.000000
vt 1.000000 0.000000
vt 0.000000 0.000000
vt 0.000000 1.000000
vt 1.000000 1.000000
vt 1.000000 0.000000
vt 0.000000 0.000000
vt 0.000000 1.000000
vt 1.000000 1.000000
vt 1.000000 0.000000
vt 0.000000 0.000000
vt 0.000000 1.000000
vt 1.000000 1.000000
vt 1.000000 0.000000
vt 0.000000 0.000000
vt 0.000000 1.000000
vt 1.000000 1.000000
vt 1.000000 0.000000
vt 0.000000 0.000000
vt 0.000000 1.000000
vt 1.000000 1.000000
vt 1.000000 0.000000
vt 0.000000 0.000000
vt 0.000000 1.000000
vt 1.000000 1.000000
vt 1.000000 0.000000
vt 0.000000 0.000000
vt 0.000000 1.000000
vt 1.000000 1.000000
vt 1.000000 0.000000
vt 0.000000 0.000000
vt 0.000000 1.000000
vt 1.000000 1.000000
vt 1.000000 0.000000
vt 0.000000 0.000000
vt 0.000000 1.000000
vt 1.000000 1.000000
vt 1.000000 0.000000
vt 0.000000 0.000000
vt 0.000000 1.000000
vt 1.000000 1.000000
vt 1.000000 0.000000
vt 0.000000 0.000000
vt 0.000000 1.000000
vt 1.000000 1.000000
vt 1.000000 0.000000
vt 0.000000 0.000000
vt 0.000000 1.000000
vt 1.000000 1.000000
vt 1.000000 0.000000
vt 0.000000 0.000000
vt 0.000000 1.000000
vt 1.000000 1.000000
vt 1.000000 0.000000
vt 0.125000 0.000000
vt 0.375000 0.000000
vt 0.375000 0.250000
vt 0.125000 0.250000
vt 0.000000 0.000000
vt 1.000000 0.000000
vt 1.000000 1.000000
vt 0.000000 1.000000
vt 0.000000 0.000000
vt 1.000000 0.000000
vt 1.000000 1.000000
vt 0.000000 1.000000
vt 0.000000 0.000000
vt 1.000000 0.000000
vt 1.000000 1.000000
vt 0.000000 1.000000
vt 0.000000 0.000000
vt 1.000000 0.000000
vt 1.000000 1.000000
vt 0.000000 1.000000
vt 0.000000 0.000000
vt 1.000000 0.000000
vt 1.000000 1.000000
vt 0.000000 1.000000
vt 0.000000 0.000000
vt 1.000000 0.000000
vt 1.000000 1.000000
vt 0.000000 1.000000
vt 0.000000 0.000000
vt 1.000000 0.000000
vt 1.000000 1.000000
vt 0.000000 1.000000
vt 0.000000 0.000000
vt 1.000000 0.000000
vt 1.000000 1.000000
vt 0.000000 1.000000
vt 0.000000 0.000000
vt 1.000000 0.000000
vt 1.000000 1.000000
vt 0.000000 1.000000
vt 0.000000 0.000000
vt 1.000000 0.000000
vt 1.000000 1.000000
vt 0.000000 1.000000
vt 0.000000 0.000000
vt 1.000000 0.000000
vt 1.000000 1.000000
vt 0.000000 1.000000
vt 0.000000 0.000000
vt 1.000000 0.000000
vt 1.000000 1.000000
vt 0.000000 1.000000
vt 0.000000 0.000000
vt 1.000000 0.000000
vt 1.000000 1.000000
vt 0.000000 1.000000
vt 0.000000 0.000000
vt 1.000000 0.000000
vt 1.000000 1.000000
vt 0.000000 1.000000
vt 0.000000 0.000000
vt 1.000000 0.000000
vt 1.000000 1.000000
vt 0.000000 1.000000
vt 0.000000 0.000000
vt 1.000000 0.000000
vt 1.000000 1.000000
vt 0.000000 1.000000
vn -0.857493 0.000000 0.514495
vn -0.857493 0.000000 0.514495
vn -0.928477 0.000000 0.371391
vn -0.928477 0.000000 0.371391
vn -0.948683 0.000000 0.316227
vn -0.948683 0.000000 0.316227
vn -0.908397 0.000000 0.418109
vn -0.908397 0.000000 0.418109
vn -0.474100 0.000000 0.880471
vn -0.474100 0.000000 0.880471
vn -0.376902 0.000000 0.926253
vn -0.376902 0.000000 0.926253
vn -0.593199 0.000000 0.805056
vn -0.593199 0.000000 0.805056
vn -0.789352 0.000000 0.613941
vn -0.789352 0.000000 0.613941
vn -0.919145 0.000000 0.393919
vn -0.919145 0.000000 0.393919
vn -0.928477 0.000000 0.371391
vn -0.928477 0.000000 0.371391
vn -0.816024 0.000000 0.578018
vn -0.816024 0.000000 0.578018
vn -0.751204 0.000000 0.660070
vn -0.751204 0.000000 0.660070
vn -0.708003 0.000000 0.706209
vn -0.708003 0.000000 0.706209
vn -0.242066 0.000000 0.970260
vn -0.242066 0.000000 0.970260
vn -0.195806 0.000000 0.980643
vn -0.195806 0.000000 0.980643
vn -0.336336 0.000000 0.941742
vn -0.336336 0.000000 0.941742
vn -0.447211 0.000000 0.894429
vn -0.447211 0.000000 0.894429
vn 0.995037 0.000000 -0.099504
vn 0.992833 0.000000 0.119512
vn 0.992833 0.000000 0.119512
vn 0.995037 0.000000 -0.099504
vn 0.904891 0.000000 -0.425645
vn 0.904891 0.000000 -0.425645
vn 0.806405 0.000000 -0.591364
vn 0.806405 0.000000 -0.591364
vn 0.540758 0.000000 -0.841178
vn 0.540758 0.000000 -0.841178
vn 0.280000 0.000000 -0.960000
vn 0.280000 0.000000 -0.960000
vn 0.259973 0.000000 -0.965616
vn 0.259973 0.000000 -0.965616
vn 0.501036 0.000000 -0.865426
vn 0.501036 0.000000 -0.865426
vn 0.853282 0.000000 -0.521450
vn 0.853282 0.000000 -0.521450
vn 0.952926 0.000000 -0.303204
vn 0.952926 0.000000 -0.303204
vn 0.840297 0.000000 -0.542127
vn 0.840297 0.000000 -0.542127
vn 0.789352 0.000000 -0.613941
vn 0.789352 0.000000 -0.613941
vn 0.857493 0.000000 -0.514496
vn 0.857493 0.000000 -0.514496
vn 0.755689 0.000000 -0.654931
vn 0.755689 0.000000 -0.654931
vn 0.526355 0.000000 -0.850265
vn 0.526355 0.000000 -0.850265
vn 0.355996 0.000000 -0.934488
vn 0.355996 0.000000 -0.934488
vn 0.094809 0.000000 -0.995495
vn 0.094809 0.000000 -0.995495
vn 0.000000 0.000000 -1.000000
vn 0.000000 0.000000 -1.000000
vn 0.857493 0.000000 -0.514495
vn 0.857493 0.000000 -0.514495
vn 0.928477 0.000000 -0.371391
vn 0.928477 0.000000 -0.371391
vn 0.948683 0.000000 -0.316227
vn 0.948683 0.000000 -0.316227
vn 0.908397 0.000000 -0.418109
vn 0.908397 0.000000 -0.418109
vn 0.474100 0.000000 -0.880471
vn 0.474100 0.000000 -0.880471
vn 0.376902 0.000000 -0.926253
vn 0.376902 0.000000 -0.926253
vn 0.593199 0.000000 -0.805056
vn 0.593199 0.000000 -0.805056
vn 0.789352 0.000000 -0.613941
vn 0.789352 0.000000 -0.613941
vn 0.919145 0.000000 -0.393919
vn 0.919145 0.000000 -0.393919
vn 0.928477 0.000000 -0.371391
vn 0.928477 0.000000 -0.371391
vn 0.816024 0.000000 -0.578018
vn 0.816024 0.000000 -0.578018
vn 0.751204 0.000000 -0.660070
vn 0.751204 0.000000 -0.660070
vn 0.708003 0.000000 -0.706209
vn 0.708003 0.000000 -0.706209
vn 0.242066 0.000000 -0.970260
vn 0.242066 0.000000 -0.970260
vn 0.195806 0.000000 -0.980643
vn 0.195806 0.000000 -0.980643
vn 0.336336 0.000000 -0.941742
vn 0.336336 0.000000 -0.941742
vn 0.447211 0.000000 -0.894429
vn 0.447211 0.000000 -0.894429
vn -0.995037 0.000000 0.099504
vn -0.992833 0.000000 -0.119512
vn -0.992833 0.000000 -0.119512
vn -0.995037 0.000000 0.099504
vn -0.904891 0.000000 0.425645
vn -0.904891 0.000000 0.425645
vn -0.806405 0.000000 0.591364
vn -0.806405 0.000000 0.591364
vn -0.540758 0.000000 0.841178
vn -0.540758 0.000000 0.841178
vn -0.280000 0.000000 0.960000
vn -0.280000 0.000000 0.960000
vn -0.259973 0.000000 0.965616
vn -0.259973 0.000000 0.965616
vn -0.501036 0.000000 0.865426
vn -0.501036 0.000000 0.865426
vn -0.853282 0.000000 0.521450
vn -0.853282 0.000000 0.521450
vn -0.952926 0.000000 0.303204
vn -0.952926 0.000000 0.303204
vn -0.840297 0.000000 0.542127
vn -0.840297 0.000000 0.542127
vn -0.789352 0.000000 0.613941
vn -0.789352 0.000000 0.613941
vn -0.857493 0.000000 0.514496
vn -0.857493 0.000000 0.514496
vn -0.755689 0.000000 0.654931
vn -0.755689 0.000000 0.654931
vn -0.526355 0.000000 0.850265
vn -0.526355 0.000000 0.850265
vn -0.355996 0.000000 0.934488
vn -0.355996 0.000000 0.934488
vn -0.094809 0.000000 0.995495
vn -0.094809 0.000000 0.995495
vn 0.000000 0.000000 1.000000
vn 0.000000 0.000000 1.000000
s 1
g pCube5
usemtl initialShadingGroup
f 4/3/1 3/4/2 2/2/3 1/1/4
f 4/5/1 6/8/5 5/7/6 3/6/2
f 6/9/5 8/12/7 7/11/8 5/10/6
f 8/13/7 10/16/9 9/15/10 7/14/8
f 10/17/9 12/20/11 11/19/12 9/18/10
f 12/21/11 14/24/13 13/23/14 11/22/12
f 14/25/13 16/28/15 15/27/16 13/26/14
f 16/29/15 18/32/17 17/31/18 15/30/16
f 18/33/17 20/36/19 19/35/20 17/34/18
f 20/37/19 22/40/21 21/39/22 19/38/20
f 22/41/21 24/44/23 23/43/24 21/42/22
f 24/45/23 26/48/25 25/47/26 23/46/24
f 26/49/25 28/52/27 27/51/28 25/50/26
f 28/53/27 30/56/29 29/55/30 27/54/28
f 30/57/29 32/60/31 31/59/32 29/58/30
f 32/61/31 34/64/33 33/63/34 31/62/32
s 2
f 38/65/35 35/66/36 36/67/37 37/68/38
f 38/69/35 37/70/38 39/71/39 40/72/40
f 40/73/40 39/74/39 41/75/41 42/76/42
f 42/77/42 41/78/41 43/79/43 44/80/44
f 44/81/44 43/82/43 45/83/45 46/84/46
f 46/85/46 45/86/45 47/87/47 48/88/48
f 48/89/48 47/90/47 49/91/49 50/92/50
f 50/93/50 49/94/49 51/95/51 52/96/52
f 52/97/52 51/98/51 53/99/53 54/100/54
f 54/101/54 53/102/53 55/103/55 56/104/56
f 56/105/56 55/106/55 57/107/57 58/108/58
f 58/109/58 57/110/57 59/111/59 60/112/60
f 60/113/60 59/114/59 61/115/61 62/116/62
f 62/117/62 61/118/61 63/119/63 64/120/64
f 64/121/64 63/122/63 65/123/65 66/124/66
f 66/125/66 65/126/65 67/127/67 68/128/68
f 68/129/68 67/130/67 69/131/69 70/132/70
s 3
f 74/133/71 73/134/72 72/135/73 71/136/74
f 74/137/71 76/138/75 75/139/76 73/140/72
f 76/141/75 78/142/77 77/143/78 75/144/76
f 78/145/77 80/146/79 79/147/80 77/148/78
f 80/149/79 82/150/81 81/151/82 79/152/80
f 82/153/81 84/154/83 83/155/84 81/156/82
f 84/157/83 86/158/85 85/159/86 83/160/84
f 86/161/85 88/162/87 87/163/88 85/164/86
f 88/165/87 90/166/89 89/167/90 87/168/88
f 90/169/89 92/170/91 91/171/92 89/172/90
f 92/173/91 94/174/93 93/175/94 91/176/92
f 94/177/93 96/178/95 95/179/96 93/180/94
f 96/181/95 98/182/97 97/183/98 95/184/96
f 98/185/97 100/186/99 99/187/100 97/188/98
f 100/189/99 102/190/101 101/191/102 99/192/100
f 102/193/101 104/194/103 103/195/104 101/196/102
s 4
f 108/197/105 105/198/106 106/199/107 107/200/108
f 108/201/105 107/202/108 109/203/109 110/204/110
f 110/205/110 109/206/109 111/207/111 112/208/112
f 112/209/112 111/210/111 113/211/113 114/212/114
f 114/213/114 113/214/113 115/215/115 116/216/116
f 116/217/116 115/218/115 117/219/117 118/220/118
f 118/221/118 117/222/117 119/223/119 120/224/120
f 120/225/120 119/226/119 121/227/121 122/228/122
f 122/229/122 121/230/121 123/231/123 124/232/124
f 124/233/124 123/234/123 125/235/125 126/236/126
f 126/237/126 125/238/125 127/239/127 128/240/128
f 128/241/128 127/242/127 129/243/129 130/244/130
f 130/245/130 129/246/129 131/247/131 132/248/132
f 132/249/132 131/250/131 133/251/133 134/252/134
f 134/253/134 133/254/133 135/255/135 136/256/136
f 136/257/136 135/258/135 137/259/137 138/260/138
f 138/261/138 137/262/137 139/263/139 140/264/140
